<svg width="21" height="21" viewBox="0 0 21 21" fill="none" xmlns="http://www.w3.org/2000/svg">
<path d="M18.5508 4.54846V14.3214C18.5508 15.1187 17.9015 15.8502 17.1042 15.9488L16.8494 15.9817C15.5014 16.1625 13.6027 16.7215 12.0739 17.3626C11.5396 17.5845 10.9478 17.1817 10.9478 16.5982V5.16492C10.9478 4.8608 11.1204 4.58134 11.3917 4.43339C12.8958 3.61966 15.1726 2.89635 16.7179 2.76484H16.7672C17.7535 2.76484 18.5508 3.56212 18.5508 4.54846Z" fill="white"/>
<path d="M9.27105 4.43339C7.76689 3.61966 5.49011 2.89635 3.94485 2.76484H3.88732C2.90098 2.76484 2.1037 3.56212 2.1037 4.54846V14.3214C2.1037 15.1187 2.75303 15.8502 3.55032 15.9488L3.80512 15.9817C5.15311 16.1625 7.0518 16.7215 8.58062 17.3626C9.11488 17.5845 9.70668 17.1817 9.70668 16.5982V5.16492C9.70668 4.85258 9.54229 4.58134 9.27105 4.43339ZM4.57775 6.92388H6.42713C6.76412 6.92388 7.04358 7.20334 7.04358 7.54033C7.04358 7.88555 6.76412 8.15679 6.42713 8.15679H4.57775C4.24075 8.15679 3.96129 7.88555 3.96129 7.54033C3.96129 7.20334 4.24075 6.92388 4.57775 6.92388ZM7.04358 10.6226H4.57775C4.24075 10.6226 3.96129 10.3514 3.96129 10.0062C3.96129 9.66917 4.24075 9.38971 4.57775 9.38971H7.04358C7.38058 9.38971 7.66004 9.66917 7.66004 10.0062C7.66004 10.3514 7.38058 10.6226 7.04358 10.6226Z" fill="white"/>
</svg>
