<svg width="20" height="20" viewBox="0 0 20 20" fill="none" xmlns="http://www.w3.org/2000/svg">
<path d="M4.1665 6.6665C2.78317 6.6665 1.6665 7.78317 1.6665 9.1665V15.8332C1.6665 17.2165 2.78317 18.3332 4.1665 18.3332H5.4165C6.33317 18.3332 7.08317 17.5832 7.08317 16.6665V8.33317C7.08317 7.4165 6.33317 6.6665 5.4165 6.6665H4.1665ZM4.99984 14.1665C4.99984 14.5082 4.7165 14.7915 4.37484 14.7915C4.03317 14.7915 3.74984 14.5082 3.74984 14.1665V10.8332C3.74984 10.4915 4.03317 10.2082 4.37484 10.2082C4.7165 10.2082 4.99984 10.4915 4.99984 10.8332V14.1665Z" fill="black"/>
<path d="M15.8335 1.6665H10.8335C9.45016 1.6665 8.3335 2.78317 8.3335 4.1665V15.8332C8.3335 17.2165 9.45016 18.3332 10.8335 18.3332H11.2502C11.4835 18.3332 11.6668 18.1498 11.6668 17.9165V14.9998C11.6668 14.5415 12.0418 14.1665 12.5002 14.1665H14.1668C14.6252 14.1665 15.0002 14.5415 15.0002 14.9998V17.9165C15.0002 18.1498 15.1835 18.3332 15.4168 18.3332H15.8335C17.2168 18.3332 18.3335 17.2165 18.3335 15.8332V4.1665C18.3335 2.78317 17.2168 1.6665 15.8335 1.6665ZM12.2918 10.8332C12.2918 11.1748 12.0085 11.4582 11.6668 11.4582C11.3252 11.4582 11.0418 11.1748 11.0418 10.8332V6.6665C11.0418 6.32484 11.3252 6.0415 11.6668 6.0415C12.0085 6.0415 12.2918 6.32484 12.2918 6.6665V10.8332ZM15.6252 10.8332C15.6252 11.1748 15.3418 11.4582 15.0002 11.4582C14.6585 11.4582 14.3752 11.1748 14.3752 10.8332V6.6665C14.3752 6.32484 14.6585 6.0415 15.0002 6.0415C15.3418 6.0415 15.6252 6.32484 15.6252 6.6665V10.8332Z" fill="black"/>
</svg>
