<svg width="20" height="20" viewBox="0 0 20 20" fill="none" xmlns="http://www.w3.org/2000/svg">
<path d="M13.3334 1.66675H6.66675C3.33341 1.66675 1.66675 3.33341 1.66675 6.66675V17.5001C1.66675 17.9584 2.04175 18.3334 2.50008 18.3334H13.3334C16.6667 18.3334 18.3334 16.6667 18.3334 13.3334V6.66675C18.3334 3.33341 16.6667 1.66675 13.3334 1.66675ZM9.25841 13.8834C9.05008 14.0917 8.66675 14.2834 8.38341 14.3251L6.65008 14.5667C6.58341 14.5751 6.51675 14.5834 6.45841 14.5834C6.16675 14.5834 5.90008 14.4834 5.70841 14.2917C5.47508 14.0584 5.37508 13.7167 5.43341 13.3501L5.67508 11.6167C5.71675 11.3334 5.90841 10.9417 6.11675 10.7417L9.25841 7.60008C9.30841 7.75008 9.37508 7.90008 9.45008 8.06675C9.52508 8.21675 9.60008 8.36675 9.68341 8.50841C9.75008 8.62508 9.82508 8.74175 9.89175 8.82508C9.97508 8.95008 10.0584 9.05841 10.1167 9.11675C10.1501 9.16675 10.1834 9.20008 10.1917 9.21675C10.3751 9.42508 10.5667 9.62508 10.7501 9.77508C10.8001 9.82508 10.8334 9.85008 10.8417 9.85841C10.9501 9.94175 11.0501 10.0334 11.1501 10.0917C11.2584 10.1751 11.3751 10.2501 11.4917 10.3167C11.6334 10.4001 11.7834 10.4834 11.9417 10.5584C12.1001 10.6334 12.2501 10.6917 12.4001 10.7417L9.25841 13.8834ZM13.7917 9.35841L13.1417 10.0084C13.1001 10.0501 13.0417 10.0751 12.9834 10.0751C12.9667 10.0751 12.9334 10.0751 12.9167 10.0667C11.4834 9.65841 10.3417 8.51675 9.93341 7.08341C9.90841 7.00841 9.93341 6.92508 9.99175 6.86675L10.6501 6.20841C11.7251 5.13341 12.7417 5.15841 13.7917 6.20841C14.3251 6.74175 14.5917 7.25841 14.5834 7.79175C14.5834 8.31675 14.3251 8.82508 13.7917 9.35841Z" fill="white"/>
</svg>
