<svg width="20" height="20" viewBox="0 0 20 20" fill="none" xmlns="http://www.w3.org/2000/svg">
<path d="M8.83317 3.45817C8.83317 3.6165 8.69984 3.74984 8.5415 3.74984H7.59984C5.79984 3.74984 4.33317 5.2165 4.33317 7.0165V14.7082C4.33317 14.8665 4.19984 14.9998 4.0415 14.9998H3.45817C2.4665 14.9998 1.6665 14.1998 1.6665 13.2082V3.45817C1.6665 2.4665 2.4665 1.6665 3.45817 1.6665H7.0415C8.03317 1.6665 8.83317 2.4665 8.83317 3.45817Z" fill="white"/>
<path d="M18.3332 3.45817V13.2082C18.3332 14.1998 17.5332 14.9998 16.5415 14.9998H16.0165C15.8582 14.9998 15.7248 14.8665 15.7248 14.7082V7.0165C15.7248 5.2165 14.2582 3.74984 12.4582 3.74984H11.4582C11.2998 3.74984 11.1665 3.6165 11.1665 3.45817C11.1665 2.4665 11.9665 1.6665 12.9582 1.6665H16.5415C17.5332 1.6665 18.3332 2.4665 18.3332 3.45817Z" fill="white"/>
<path d="M12.4585 5H7.60016C6.4835 5 5.5835 5.9 5.5835 7.01667V16.3167C5.5835 17.4333 6.4835 18.3333 7.60016 18.3333H8.9585C9.19183 18.3333 9.37516 18.15 9.37516 17.9167V15.8333C9.37516 15.4917 9.6585 15.2083 10.0002 15.2083C10.3418 15.2083 10.6252 15.4917 10.6252 15.8333V17.9167C10.6252 18.15 10.8085 18.3333 11.0418 18.3333H12.4668C13.5752 18.3333 14.4752 17.4333 14.4752 16.325V7.01667C14.4752 5.9 13.5752 5 12.4585 5ZM11.6668 12.2917H8.3335C7.99183 12.2917 7.7085 12.0083 7.7085 11.6667C7.7085 11.325 7.99183 11.0417 8.3335 11.0417H11.6668C12.0085 11.0417 12.2918 11.325 12.2918 11.6667C12.2918 12.0083 12.0085 12.2917 11.6668 12.2917ZM11.6668 9.79167H8.3335C7.99183 9.79167 7.7085 9.50833 7.7085 9.16667C7.7085 8.825 7.99183 8.54167 8.3335 8.54167H11.6668C12.0085 8.54167 12.2918 8.825 12.2918 9.16667C12.2918 9.50833 12.0085 9.79167 11.6668 9.79167Z" fill="white"/>
</svg>
