<svg width="19" height="15" viewBox="0 0 19 15" fill="none" xmlns="http://www.w3.org/2000/svg">
<path d="M18.0859 1.24406C17.8147 0.586509 17.1736 0.118001 16.3845 0.118001H14.6749L14.2146 2.24684C14.1488 2.53452 13.894 2.73178 13.6146 2.73178C13.5735 2.73178 13.5242 2.73178 13.4831 2.71534C13.1543 2.64137 12.9406 2.31259 13.0063 1.98381L13.4091 0.109782H9.21717L8.69934 2.24684C8.63358 2.5263 8.37878 2.71534 8.09932 2.71534C8.05 2.71534 8.00069 2.70713 7.95137 2.69891C7.62259 2.61671 7.41711 2.28793 7.4993 1.95094L7.94315 0.101562H6.2746C5.4691 0.101562 4.75401 0.627607 4.51564 1.40023L1.05526 12.5376C0.693604 13.7294 1.57308 14.9459 2.81422 14.9459H13.6146C14.4694 14.9459 15.2091 14.3705 15.4064 13.5404L18.1764 2.41945C18.2257 2.21396 18.2421 2.00847 18.2257 1.81121C18.2092 1.61394 18.1681 1.41667 18.0859 1.24406ZM12.2337 10.6307H5.65815C5.32115 10.6307 5.04169 10.3512 5.04169 10.0142C5.04169 9.67721 5.32115 9.39775 5.65815 9.39775H12.2337C12.5707 9.39775 12.8502 9.67721 12.8502 10.0142C12.8502 10.3512 12.5707 10.6307 12.2337 10.6307ZM13.0556 7.34289H6.48009C6.14309 7.34289 5.86363 7.06343 5.86363 6.72643C5.86363 6.38944 6.14309 6.10997 6.48009 6.10997H13.0556C13.3926 6.10997 13.6721 6.38944 13.6721 6.72643C13.6721 7.06343 13.3926 7.34289 13.0556 7.34289Z" fill="black"/>
</svg>
