<svg width="20" height="20" viewBox="0 0 20 20" fill="none" xmlns="http://www.w3.org/2000/svg">
<path d="M17.0837 13.3333V15.4167C17.0837 17.025 15.7753 18.3333 14.167 18.3333H5.83366C4.22533 18.3333 2.91699 17.025 2.91699 15.4167V14.875C2.91699 13.5667 3.98366 12.5 5.29199 12.5H16.2503C16.7087 12.5 17.0837 12.875 17.0837 13.3333Z" fill="white"/>
<path d="M12.917 1.6665H7.08366C3.75033 1.6665 2.91699 2.49984 2.91699 5.83317V12.1498C3.55033 11.5915 4.38366 11.2498 5.29199 11.2498H16.2503C16.7087 11.2498 17.0837 10.8748 17.0837 10.4165V5.83317C17.0837 2.49984 16.2503 1.6665 12.917 1.6665ZM10.8337 8.95817H6.66699C6.32533 8.95817 6.04199 8.67484 6.04199 8.33317C6.04199 7.9915 6.32533 7.70817 6.66699 7.70817H10.8337C11.1753 7.70817 11.4587 7.9915 11.4587 8.33317C11.4587 8.67484 11.1753 8.95817 10.8337 8.95817ZM13.3337 6.0415H6.66699C6.32533 6.0415 6.04199 5.75817 6.04199 5.4165C6.04199 5.07484 6.32533 4.7915 6.66699 4.7915H13.3337C13.6753 4.7915 13.9587 5.07484 13.9587 5.4165C13.9587 5.75817 13.6753 6.0415 13.3337 6.0415Z" fill="white"/>
</svg>
