<svg width="20" height="20" viewBox="0 0 20 20" fill="none" xmlns="http://www.w3.org/2000/svg">
<path d="M17.4753 11.9418C16.8753 11.2585 15.9837 10.8335 15.0003 10.8335C14.067 10.8335 13.217 11.2168 12.6087 11.8418C12.0253 12.4418 11.667 13.2668 11.667 14.1668C11.667 14.7918 11.842 15.3835 12.1503 15.8835C12.317 16.1668 12.5337 16.4251 12.7837 16.6418C13.367 17.1751 14.142 17.5002 15.0003 17.5002C16.217 17.5002 17.2753 16.8502 17.8503 15.8835C18.0253 15.6002 18.1587 15.2752 18.2337 14.9418C18.3003 14.6918 18.3337 14.4335 18.3337 14.1668C18.3337 13.3168 18.0086 12.5335 17.4753 11.9418ZM16.2503 14.7751H13.7587C13.417 14.7751 13.1337 14.4918 13.1337 14.1501C13.1337 13.8085 13.417 13.5251 13.7587 13.5251H16.2503C16.592 13.5251 16.8753 13.8085 16.8753 14.1501C16.8753 14.4918 16.592 14.7751 16.2503 14.7751Z" fill="white"/>
<path opacity="0.4" d="M17.5748 17.9165C17.5748 18.1498 17.3915 18.3332 17.1582 18.3332H2.84147C2.60814 18.3332 2.4248 18.1498 2.4248 17.9165C2.4248 14.4665 5.82483 11.6665 9.99983 11.6665C10.8582 11.6665 11.6915 11.7831 12.4582 12.0081C11.9665 12.5915 11.6665 13.3498 11.6665 14.1665C11.6665 14.7915 11.8415 15.3832 12.1498 15.8832C12.3165 16.1665 12.5332 16.4248 12.7832 16.6415C13.3665 17.1748 14.1415 17.4998 14.9998 17.4998C15.9332 17.4998 16.7748 17.1165 17.3748 16.4998C17.5081 16.9498 17.5748 17.4248 17.5748 17.9165Z" fill="white"/>
<path d="M9.99967 9.99984C12.3009 9.99984 14.1663 8.13436 14.1663 5.83317C14.1663 3.53198 12.3009 1.6665 9.99967 1.6665C7.69849 1.6665 5.83301 3.53198 5.83301 5.83317C5.83301 8.13436 7.69849 9.99984 9.99967 9.99984Z" fill="white"/>
</svg>
