<svg width="25" height="25" viewBox="0 0 40 40" fill="none" xmlns="http://www.w3.org/2000/svg">
<path d="M8.3335 13.3335C5.56683 13.3335 3.3335 15.5668 3.3335 18.3335V31.6668C3.3335 34.4335 5.56683 36.6668 8.3335 36.6668H10.8335C12.6668 36.6668 14.1668 35.1668 14.1668 33.3335V16.6668C14.1668 14.8335 12.6668 13.3335 10.8335 13.3335H8.3335ZM10.0002 28.3335C10.0002 29.0168 9.4335 29.5835 8.75016 29.5835C8.06683 29.5835 7.50016 29.0168 7.50016 28.3335V21.6668C7.50016 20.9835 8.06683 20.4168 8.75016 20.4168C9.4335 20.4168 10.0002 20.9835 10.0002 21.6668V28.3335Z" fill="#121212"/>
<path d="M31.6665 3.3335H21.6665C18.8998 3.3335 16.6665 5.56683 16.6665 8.3335V31.6668C16.6665 34.4335 18.8998 36.6668 21.6665 36.6668H22.4998C22.9665 36.6668 23.3332 36.3002 23.3332 35.8335V30.0002C23.3332 29.0835 24.0832 28.3335 24.9998 28.3335H28.3332C29.2498 28.3335 29.9998 29.0835 29.9998 30.0002V35.8335C29.9998 36.3002 30.3665 36.6668 30.8332 36.6668H31.6665C34.4332 36.6668 36.6665 34.4335 36.6665 31.6668V8.3335C36.6665 5.56683 34.4332 3.3335 31.6665 3.3335ZM24.5832 21.6668C24.5832 22.3502 24.0165 22.9168 23.3332 22.9168C22.6498 22.9168 22.0832 22.3502 22.0832 21.6668V13.3335C22.0832 12.6502 22.6498 12.0835 23.3332 12.0835C24.0165 12.0835 24.5832 12.6502 24.5832 13.3335V21.6668ZM31.2498 21.6668C31.2498 22.3502 30.6832 22.9168 29.9998 22.9168C29.3165 22.9168 28.7498 22.3502 28.7498 21.6668V13.3335C28.7498 12.6502 29.3165 12.0835 29.9998 12.0835C30.6832 12.0835 31.2498 12.6502 31.2498 13.3335V21.6668Z" fill="#121212"/>
</svg>
