<svg width="25" height="25" viewBox="0 0 21 21" fill="#121212" xmlns="http://www.w3.org/2000/svg">
<path d="M13.7753 2.5331H6.88737C3.8955 2.5331 2.11188 4.31671 2.11188 7.30859V14.1883C2.11188 17.1884 3.8955 18.972 6.88737 18.972H13.767C16.7589 18.972 18.5425 17.1884 18.5425 14.1965V7.30859C18.5508 4.31671 16.7671 2.5331 13.7753 2.5331ZM14.3424 10.3662C14.3424 10.6868 14.0876 10.9416 13.767 10.9416C13.4465 10.9416 13.1917 10.6868 13.1917 10.3662V10.2183L10.956 12.454C10.8327 12.5773 10.6683 12.6348 10.4957 12.6184C10.3231 12.6019 10.1669 12.5115 10.0765 12.3635L9.23813 11.1142L7.28191 13.0704C7.16683 13.1855 7.0271 13.2348 6.87915 13.2348C6.7312 13.2348 6.58325 13.1773 6.4764 13.0704C6.25448 12.8485 6.25448 12.4868 6.4764 12.2567L8.92579 9.8073C9.04909 9.68401 9.21348 9.62647 9.38608 9.64291C9.55869 9.65935 9.71486 9.74977 9.80527 9.89772L10.6437 11.1471L12.378 9.41277H12.23C11.9095 9.41277 11.6546 9.15797 11.6546 8.83741C11.6546 8.51685 11.9095 8.26205 12.23 8.26205H13.7588C13.8328 8.26205 13.9068 8.27849 13.9808 8.30314C14.1205 8.36068 14.2356 8.47575 14.2931 8.61548C14.326 8.68946 14.3342 8.76343 14.3342 8.83741V10.3662H14.3424Z" fill="#121212"/>
</svg>
