<svg width="25" height="25" viewBox="0 0 41 41" fill="none" xmlns="http://www.w3.org/2000/svg">
<path d="M37.1347 8.50869V28.3254C37.1347 29.942 35.818 31.4254 34.2014 31.6254L33.6847 31.692C30.9514 32.0587 27.1014 33.192 24.0014 34.492C22.918 34.942 21.718 34.1254 21.718 32.942V9.75869C21.718 9.14202 22.068 8.57535 22.618 8.27535C25.668 6.62535 30.2847 5.15869 33.418 4.89202H33.518C35.518 4.89202 37.1347 6.50869 37.1347 8.50869Z" fill="#303030"/>
<path d="M18.318 8.27535C15.268 6.62535 10.6513 5.15869 7.518 4.89202H7.40133C5.40133 4.89202 3.78467 6.50869 3.78467 8.50869V28.3254C3.78467 29.942 5.10133 31.4254 6.718 31.6254L7.23467 31.692C9.968 32.0587 13.818 33.192 16.918 34.492C18.0013 34.942 19.2013 34.1254 19.2013 32.942V9.75869C19.2013 9.12535 18.868 8.57535 18.318 8.27535ZM8.80133 13.3254H12.5513C13.2347 13.3254 13.8013 13.892 13.8013 14.5754C13.8013 15.2754 13.2347 15.8254 12.5513 15.8254H8.80133C8.118 15.8254 7.55133 15.2754 7.55133 14.5754C7.55133 13.892 8.118 13.3254 8.80133 13.3254ZM13.8013 20.8254H8.80133C8.118 20.8254 7.55133 20.2754 7.55133 19.5754C7.55133 18.892 8.118 18.3254 8.80133 18.3254H13.8013C14.4847 18.3254 15.0513 18.892 15.0513 19.5754C15.0513 20.2754 14.4847 20.8254 13.8013 20.8254Z" fill="#303030"/>
</svg>
